<?xml version="1.0" encoding="iso-8859-1"?>
<!-- Generator: Adobe Illustrator 25.1.0, SVG Export Plug-In . SVG Version: 6.00 Build 0)  -->
<svg version="1.1" id="Capa_1" xmlns="http://www.w3.org/2000/svg" xmlns:xlink="http://www.w3.org/1999/xlink" x="0px" y="0px"
	 viewBox="0 0 327.244 199.853" style="enable-background:new 0 0 327.244 199.853;" xml:space="preserve">
<path style="fill:#FFFFFF;" d="M54.682,20.482c3.412,3.48,5.12,8.009,5.12,13.587c0,3.677-0.772,7.007-2.314,9.994
	c-1.543,2.988-3.726,5.317-6.547,6.991c-2.823,1.674-6.072,2.511-9.748,2.511H19.729v28.651c0,0.526-0.213,0.985-0.64,1.378
	c-0.428,0.394-0.903,0.591-1.428,0.591c-0.591,0-1.083-0.197-1.477-0.591c-0.394-0.394-0.591-0.852-0.591-1.378V17.233
	c0-0.524,0.197-0.985,0.591-1.378c0.394-0.394,0.853-0.591,1.378-0.591h23.63C46.771,15.264,51.268,17.003,54.682,20.482z
	 M51.728,45.245c2.625-2.92,3.938-6.646,3.938-11.175s-1.297-8.138-3.889-10.831c-2.594-2.69-6.122-4.037-10.584-4.037H19.729
	v30.424h21.464C45.59,49.626,49.102,48.166,51.728,45.245z"/>
<path style="fill:#FFFFFF;" d="M81.124,81.744c-3.611-1.627-7.188-4.164-10.732-7.61c-0.394-0.383-0.59-0.862-0.59-1.436
	c0-0.51,0.229-1.005,0.689-1.484c0.458-0.479,0.951-0.718,1.477-0.718c0.591,0,1.147,0.287,1.674,0.862
	c2.56,2.936,5.595,5.169,9.107,6.701c3.511,1.532,7.203,2.298,11.077,2.298c5.054,0,9.221-1.18,12.504-3.542
	c3.281-2.36,4.923-5.488,4.923-9.381c-0.066-3.063-0.92-5.584-2.56-7.562c-1.642-1.977-3.66-3.557-6.055-4.739
	c-2.397-1.18-5.662-2.504-9.797-3.972c-4.529-1.659-8.058-3.126-10.584-4.403c-2.528-1.276-4.694-3.095-6.499-5.456
	c-1.806-2.36-2.708-5.456-2.708-9.286c0-3.126,0.886-5.966,2.658-8.519c1.772-2.552,4.298-4.562,7.582-6.031
	c3.281-1.467,7.089-2.201,11.421-2.201c3.872,0,7.547,0.686,11.027,2.058c3.478,1.373,6.235,3.303,8.271,5.791
	c0.655,0.895,0.984,1.565,0.984,2.01c0,0.511-0.246,0.974-0.738,1.388c-0.492,0.416-1.034,0.622-1.625,0.622
	c-0.526,0-0.952-0.191-1.28-0.574c-1.838-2.298-4.201-4.116-7.089-5.456c-2.889-1.34-6.072-2.01-9.55-2.01
	c-4.989,0-9.142,1.149-12.455,3.446c-3.315,2.297-4.972,5.425-4.972,9.381c0,2.744,0.803,5.073,2.412,6.988
	c1.607,1.915,3.626,3.463,6.055,4.642c2.428,1.182,5.448,2.41,9.058,3.686c4.594,1.596,8.237,3.063,10.929,4.403
	c2.69,1.34,4.987,3.288,6.892,5.84c1.903,2.553,2.855,5.935,2.855,10.147c0,2.936-0.886,5.681-2.658,8.232
	c-1.772,2.554-4.317,4.58-7.63,6.079c-3.315,1.499-7.106,2.249-11.372,2.249C88.967,84.185,84.733,83.371,81.124,81.744z"/>
<path style="fill:#FFFFFF;" d="M176.095,15.854c0.394,0.394,0.59,0.886,0.59,1.477v64.786c-0.066,0.591-0.295,1.083-0.689,1.477
	c-0.394,0.394-0.854,0.591-1.378,0.591c-0.657,0-1.166-0.197-1.526-0.591c-0.361-0.394-0.542-0.886-0.542-1.477V50.709h-42.928
	v31.408c-0.066,0.591-0.295,1.083-0.689,1.477c-0.394,0.394-0.854,0.591-1.378,0.591c-0.657,0-1.166-0.197-1.526-0.591
	c-0.361-0.394-0.542-0.886-0.542-1.477V17.331c0-0.591,0.197-1.083,0.591-1.477c0.394-0.394,0.886-0.591,1.477-0.591
	c0.591,0,1.083,0.197,1.477,0.591c0.394,0.394,0.59,0.886,0.59,1.477V46.77h42.928V17.331c0-0.591,0.197-1.083,0.591-1.477
	c0.394-0.394,0.886-0.591,1.477-0.591S175.701,15.46,176.095,15.854z"/>
<path style="fill:#FFFFFF;" d="M306.861,20.482c3.412,3.48,5.119,8.009,5.119,13.587c0,3.677-0.771,7.007-2.313,9.994
	c-1.543,2.988-3.726,5.317-6.548,6.991s-6.072,2.511-9.747,2.511h-21.464v28.651c0,0.526-0.214,0.985-0.641,1.378
	c-0.428,0.394-0.902,0.591-1.428,0.591c-0.59,0-1.083-0.197-1.477-0.591c-0.394-0.394-0.591-0.852-0.591-1.378V17.233
	c0-0.524,0.197-0.985,0.591-1.378c0.394-0.394,0.853-0.591,1.379-0.591h23.63C298.95,15.264,303.447,17.003,306.861,20.482z
	 M303.907,45.245c2.624-2.92,3.938-6.646,3.938-11.175s-1.297-8.138-3.89-10.831c-2.594-2.69-6.121-4.037-10.584-4.037h-21.464
	v30.424h21.464C297.768,49.626,301.281,48.166,303.907,45.245z"/>
<path style="fill:#FFFFFF;" d="M15.161,100.433L15.161,100.433c0-1.142,0.926-2.068,2.068-2.068h292.684
	c1.142,0,2.068,0.926,2.068,2.068l0,0c0,1.142-0.926,2.068-2.068,2.068H17.229C16.087,102.5,15.161,101.575,15.161,100.433z"/>
<g>
	<path style="fill:#FFFFFF;" d="M51.288,116.918c-0.338-0.679-1.032-1.109-1.791-1.109s-1.453,0.43-1.791,1.109l-32.234,64.781
		c-0.309,0.619-0.274,1.355,0.09,1.943c0.365,0.589,1.008,0.947,1.7,0.947h64.469c0.692,0,1.335-0.358,1.7-0.947
		c0.365-0.588,0.399-1.324,0.09-1.943L51.288,116.918z M20.493,180.59l29.005-58.291l29.005,58.291H20.493z"/>
	<path style="fill:#FFFFFF;" d="M235.255,116.391c-0.783-0.78-2.048-0.776-2.829,0.007l-30.817,30.966l-30.817-30.966
		c-0.778-0.784-2.045-0.787-2.828-0.007c-0.783,0.779-0.786,2.045-0.007,2.828l30.831,30.98l-30.831,30.979
		c-0.779,0.783-0.776,2.05,0.007,2.829c0.39,0.388,0.9,0.582,1.411,0.582c0.513,0,1.027-0.196,1.417-0.589l30.817-30.966
		l30.817,30.966c0.392,0.393,0.904,0.589,1.418,0.589c0.51,0,1.021-0.194,1.411-0.582c0.782-0.779,0.786-2.046,0.007-2.829
		l-30.831-30.979l30.831-30.98C236.041,118.437,236.037,117.17,235.255,116.391z"/>
	<path style="fill:#FFFFFF;" d="M277.686,115.862c-18.94,0-34.295,15.354-34.295,34.295c0,18.94,15.354,34.295,34.295,34.295
		c18.94,0,34.295-15.354,34.295-34.295C311.98,131.217,296.626,115.862,277.686,115.862z M277.686,180.452
		c-16.705,0-30.295-13.59-30.295-30.295c0-16.705,13.59-30.295,30.295-30.295c16.705,0,30.295,13.59,30.295,30.295
		C307.98,166.862,294.39,180.452,277.686,180.452z"/>
	<path style="fill:#FFFFFF;" d="M157.091,115.696H93.974c-1.511,0-2.736,1.225-2.736,2.736v63.45c0,1.511,1.225,2.736,2.736,2.736
		h63.118c1.511,0,2.736-1.225,2.736-2.736v-63.45C159.827,116.921,158.602,115.696,157.091,115.696z M155.827,180.618H95.238
		v-60.921h60.589V180.618z"/>
</g>
<g>
	<path style="fill:#FFFFFF;" d="M222.229,15.264c-19.032,0-34.461,15.429-34.461,34.461s15.429,34.461,34.461,34.461
		s34.461-15.429,34.461-34.461S241.261,15.264,222.229,15.264z M222.229,80.241c-16.827,0-30.517-13.69-30.517-30.517
		s13.69-30.517,30.517-30.517s30.517,13.69,30.517,30.517S239.056,80.241,222.229,80.241z"/>
</g>
</svg>
