<?xml version="1.0" encoding="iso-8859-1"?>
<!-- Generator: Adobe Illustrator 25.0.1, SVG Export Plug-In . SVG Version: 6.00 Build 0)  -->
<svg version="1.1" id="Capa_1" xmlns="http://www.w3.org/2000/svg" xmlns:xlink="http://www.w3.org/1999/xlink" x="0px" y="0px"
	 viewBox="199 387 20 20" style="enable-background:new 199 387 20 20;" xml:space="preserve">
<g>
	<path style="fill:#FFFFFF;" d="M205.492,402.385c-1.118,0-2.024,0.906-2.024,2.023s0.906,2.024,2.024,2.024
		c1.118,0,2.024-0.906,2.024-2.024l0,0C207.515,403.291,206.609,402.385,205.492,402.385z M205.492,405.533
		c-0.621,0-1.124-0.503-1.124-1.124c0-0.621,0.503-1.124,1.124-1.124s1.124,0.503,1.124,1.124
		C206.616,405.029,206.113,405.533,205.492,405.533z"/>
	<path style="fill:#FFFFFF;" d="M214.035,402.385c-1.118,0-2.024,0.906-2.024,2.023s0.906,2.024,2.024,2.024
		c1.118,0,2.024-0.906,2.024-2.024l0,0C216.059,403.291,215.153,402.385,214.035,402.385z M214.035,405.533
		c-0.621,0-1.124-0.503-1.124-1.124c0-0.621,0.503-1.124,1.124-1.124s1.124,0.503,1.124,1.124
		C215.16,405.029,214.656,405.533,214.035,405.533z"/>
	<path style="fill:#FFFFFF;" d="M218.24,390.401l-14.637-0.202l-0.405-1.237c-0.285-0.827-1.059-1.385-1.934-1.394h-1.506
		c-0.248,0-0.45,0.201-0.45,0.45s0.201,0.45,0.45,0.45h1.506c0.489,0.011,0.919,0.325,1.079,0.787l2.855,8.611l-0.225,0.517
		c-0.251,0.647-0.175,1.374,0.202,1.956c0.374,0.571,1.004,0.924,1.686,0.944h8.746c0.248,0,0.45-0.201,0.45-0.45
		c0-0.248-0.201-0.45-0.45-0.45h-8.746c-0.385-0.01-0.74-0.212-0.944-0.54c-0.202-0.323-0.243-0.721-0.112-1.079l0.18-0.405
		l9.466-0.989c1.04-0.115,1.895-0.871,2.136-1.889l1.079-4.519c0.049-0.13,0.023-0.277-0.067-0.382
		C218.506,390.479,218.378,390.415,218.24,390.401z M216.711,395.28c-0.146,0.655-0.702,1.139-1.372,1.192l-9.353,0.967l-2.091-6.34
		l13.782,0.202L216.711,395.28z"/>
</g>
</svg>
